<?xml version="1.0" standalone="no"?>
<!DOCTYPE svg PUBLIC "-//W3C//DTD SVG 20010904//EN"
 "http://www.w3.org/TR/2001/REC-SVG-20010904/DTD/svg10.dtd">
<svg version="1.0" xmlns="http://www.w3.org/2000/svg"
 width="800.000000pt" height="800.000000pt" viewBox="0 0 800.000000 800.000000"
 preserveAspectRatio="xMidYMid meet">

<g transform="translate(0.000000,800.000000) scale(0.100000,-0.100000)"
fill="#000000" stroke="none">
<path d="M0 4000 l0 -4000 4000 0 4000 0 0 4000 0 4000 -4000 0 -4000 0 0
-4000z m3045 2626 c74 -19 129 -51 164 -93 52 -63 63 -116 70 -338 5 -162 10
-206 24 -232 42 -78 126 -149 227 -189 41 -17 56 -29 61 -48 13 -46 -46 -206
-75 -206 -8 0 -36 9 -62 20 -45 20 -46 21 -30 39 21 24 46 104 45 145 l0 31
-15 -39 c-18 -49 -59 -104 -89 -118 -22 -10 -70 8 -120 46 -20 14 -19 15 11
48 33 34 64 88 64 110 0 7 -14 -4 -31 -25 -17 -21 -48 -46 -69 -57 l-39 -20
-26 32 c-27 32 -39 57 -51 103 -5 19 -2 25 11 25 22 0 115 40 115 50 0 5 -16
4 -36 -2 -20 -5 -52 -7 -70 -3 -32 5 -34 8 -33 43 3 84 9 94 67 107 64 15 77
25 31 25 -65 0 -79 8 -72 44 11 63 25 79 78 92 31 7 41 12 25 13 -65 3 -71 10
-64 60 5 34 15 53 38 73 l31 27 -32 -9 c-29 -8 -34 -6 -38 13 -9 45 -9 53 9
85 l17 33 -24 -15 c-22 -15 -25 -14 -73 32 -29 28 -70 55 -99 66 -28 10 -57
20 -65 23 -11 4 -8 8 10 13 38 12 60 11 115 -4z m1873 8 c26 -7 30 -24 5 -24
-34 0 -118 -48 -157 -89 -38 -39 -41 -40 -63 -25 l-24 15 16 -31 c11 -22 14
-44 10 -70 -6 -37 -7 -38 -38 -30 l-32 9 31 -27 c23 -20 33 -38 37 -73 7 -51
0 -57 -63 -60 -17 0 -9 -5 24 -14 60 -17 62 -19 75 -75 12 -53 5 -60 -58 -60
-55 0 -47 -9 21 -25 58 -13 64 -23 67 -108 1 -47 -13 -53 -87 -40 -56 10 -56
10 -33 -9 13 -10 44 -23 68 -30 41 -10 44 -13 38 -37 -11 -42 -35 -87 -59
-110 l-22 -21 -46 29 c-26 17 -54 41 -64 56 -9 14 -19 24 -21 21 -9 -9 30 -83
60 -114 l32 -33 -25 -19 c-14 -11 -41 -27 -62 -36 -36 -16 -37 -16 -72 12 -20
16 -48 52 -62 79 l-25 50 5 -49 c4 -27 18 -69 32 -93 l25 -43 -24 -9 c-76 -29
-157 39 -157 133 0 55 8 64 87 103 91 44 164 112 195 178 20 45 23 70 28 250
5 180 8 205 28 250 13 27 33 60 45 74 62 67 193 114 265 95z m-998 -513 c0
-16 -11 -20 -75 -26 -50 -4 -75 -11 -75 -19 0 -7 -11 -18 -24 -24 -33 -15 -72
-69 -87 -122 -8 -25 -28 -60 -47 -78 l-33 -34 17 39 c9 21 26 71 38 111 19 65
24 74 49 79 38 8 42 20 10 28 -24 6 -26 8 -10 16 22 13 173 47 210 48 20 1 27
-4 27 -18z m220 -7 c73 -17 74 -17 46 -29 -30 -13 -27 -18 15 -28 20 -5 29
-17 43 -64 10 -32 29 -80 43 -106 13 -26 21 -52 17 -58 -16 -27 -43 3 -94 106
l-55 110 -55 11 c-51 10 -53 12 -30 21 23 10 22 11 -20 17 -25 3 -56 7 -70 8
-15 2 -26 10 -28 22 -4 17 1 18 54 13 33 -3 93 -13 134 -23z m-1406 -348 c22
-47 20 -152 -3 -239 -41 -150 -52 -213 -58 -336 -6 -140 3 -195 39 -228 34
-31 71 -38 93 -17 22 22 15 71 -23 163 -38 94 -36 166 4 247 33 66 84 138 91
130 3 -2 -3 -31 -12 -63 -26 -86 -26 -228 0 -271 20 -33 48 -47 82 -40 30 5
54 66 51 126 -2 28 0 52 3 52 15 0 80 -77 90 -107 24 -73 1 -136 -115 -311
-97 -147 -130 -236 -112 -306 7 -28 40 -51 61 -42 12 4 12 10 0 40 -21 49 -20
53 25 93 36 33 40 41 40 85 0 41 5 54 34 86 19 20 37 35 39 32 3 -3 1 -23 -5
-46 -11 -40 -10 -42 52 -135 35 -52 85 -124 112 -161 26 -38 45 -68 42 -68 -7
0 -95 71 -148 120 -31 28 -37 31 -32 14 12 -40 36 -177 32 -181 -7 -7 -63 25
-99 57 -30 26 -38 28 -68 20 -19 -4 -65 -11 -104 -15 -65 -7 -73 -10 -124 -56
-76 -68 -128 -102 -144 -96 -14 5 -42 97 -51 173 -6 39 -3 45 40 90 25 27 54
65 64 85 15 28 35 43 92 71 40 20 90 39 112 42 l38 7 -23 17 c-18 13 -42 16
-99 15 -41 -2 -89 -1 -106 2 -29 5 -31 8 -44 83 -7 42 -24 111 -37 152 -50
156 -43 206 72 475 39 92 57 164 56 229 0 57 2 66 13 57 8 -7 21 -27 30 -45z
m2532 -24 c0 -75 19 -145 69 -258 32 -73 34 -79 50 -124 44 -124 45 -184 6
-308 -16 -50 -32 -113 -36 -139 -10 -79 -14 -89 -32 -91 -10 -1 -72 -4 -138
-6 -66 -2 -129 -6 -140 -10 -17 -5 -30 9 -81 86 -101 153 -122 210 -104 279
10 37 72 119 90 119 5 0 6 -18 3 -40 -7 -51 20 -127 48 -135 93 -30 137 118
89 300 -10 39 -16 72 -15 73 7 7 68 -84 92 -135 38 -83 39 -133 4 -242 -36
-111 -39 -156 -12 -170 33 -18 79 6 104 53 19 36 22 56 22 156 -1 71 -7 142
-17 185 -72 300 -78 344 -56 406 11 34 38 78 48 79 3 0 5 -35 6 -78z m-702
-208 c29 -11 21 -89 -14 -139 -16 -24 -43 -75 -58 -114 -16 -39 -32 -75 -37
-79 -20 -20 11 113 45 187 31 67 37 89 29 108 -14 37 -1 51 35 37z m-1214 -14
c0 -5 -6 -10 -12 -11 -7 0 -3 -5 9 -11 17 -8 21 -17 17 -38 -4 -19 2 -40 20
-68 15 -23 26 -56 26 -74 0 -33 -1 -33 -29 19 -16 28 -38 64 -50 79 -20 26
-29 92 -14 107 10 11 33 8 33 -3z m-54 -412 c-20 -45 -36 -87 -36 -93 0 -11
68 -113 168 -252 29 -40 48 -73 43 -73 -17 0 -178 167 -228 238 -47 65 -53 79
-53 124 0 44 5 55 41 96 22 25 52 65 67 88 l27 41 3 -43 c2 -32 -6 -64 -32
-126z m1248 117 c9 -33 25 -32 18 1 -3 18 -1 25 6 20 15 -9 75 -120 97 -178
l17 -47 -113 -109 c-182 -174 -333 -312 -342 -312 -13 0 143 186 268 320 63
68 115 127 115 130 0 4 -20 51 -45 104 -24 53 -40 96 -36 96 5 0 12 -11 15
-25z m-801 -39 c31 -15 57 -29 57 -32 0 -2 -15 -4 -34 -4 -22 0 -45 9 -65 26
-27 23 -44 52 -23 42 4 -2 33 -16 65 -32z m413 0 c-16 -25 -66 -42 -103 -34
-12 2 4 14 47 34 36 17 67 30 69 28 2 -2 -4 -15 -13 -28z m-416 -257 c0 -29
-13 -39 -25 -18 -10 15 4 61 15 54 6 -3 10 -19 10 -36z m44 19 c10 -38 7 -58
-9 -58 -11 0 -15 11 -15 40 0 43 14 54 24 18z m66 -44 c0 -17 -6 -24 -20 -24
-17 0 -20 7 -20 48 l1 47 19 -24 c11 -13 20 -34 20 -47z m173 3 c-4 -18 -12
-27 -24 -27 -24 0 -25 36 -2 69 16 23 17 23 24 4 4 -10 5 -31 2 -46z m47 23
c0 -29 -4 -40 -15 -40 -17 0 -18 4 -9 49 9 44 24 39 24 -9z m50 -1 c0 -19 -5
-29 -15 -29 -15 0 -22 50 -9 63 12 12 24 -4 24 -34z m-212 -12 c3 -32 0 -37
-17 -37 -17 0 -21 6 -21 33 0 61 33 63 38 4z m54 8 c9 -34 3 -45 -23 -45 -15
0 -19 7 -19 33 0 56 28 63 42 12z m751 -119 c-58 -114 -154 -236 -228 -289
-25 -18 -23 -13 13 28 48 55 142 191 142 206 0 5 -37 -16 -82 -47 -79 -53
-265 -151 -272 -143 -2 2 56 58 130 124 73 65 159 145 190 176 l57 58 38 -31
38 -31 -26 -51z m-1501 66 c9 -15 34 -48 56 -72 32 -37 85 -124 101 -165 2 -5
-54 46 -123 115 -112 111 -124 126 -109 138 28 20 57 14 75 -16z m538 -13 c0
-6 -4 -7 -10 -4 -5 3 -10 11 -10 16 0 6 5 7 10 4 6 -3 10 -11 10 -16z m37 -5
c3 -8 1 -20 -4 -25 -7 -7 -12 -2 -15 15 -6 28 9 36 19 10z m279 0 c-3 -9 -6
-21 -7 -27 0 -7 -4 -3 -8 8 -9 22 -5 35 11 35 5 0 7 -7 4 -16z m34 12 c0 -3
-4 -8 -10 -11 -5 -3 -10 -1 -10 4 0 6 5 11 10 11 6 0 10 -2 10 -4z m-250 -33
c0 -16 -4 -34 -9 -42 -9 -14 -10 -12 -27 52 -4 12 0 17 15 17 16 0 21 -6 21
-27z m50 -20 c0 -55 -17 -48 -27 10 -4 30 -3 37 11 37 12 0 16 -10 16 -47z
m60 33 c0 -32 -13 -75 -21 -70 -5 3 -9 23 -9 45 0 28 4 39 15 39 8 0 15 -6 15
-14z m60 5 c0 -4 -5 -23 -12 -42 -12 -34 -12 -34 -19 -9 -13 45 -10 60 11 60
11 0 20 -4 20 -9z m908 -14 c31 -33 44 -83 36 -144 -5 -45 -3 -56 19 -85 14
-18 30 -45 36 -61 12 -32 21 -33 52 -8 20 16 24 28 23 69 -1 27 -11 71 -23 97
-38 86 -35 87 90 27 60 -29 81 -45 95 -72 11 -19 39 -56 63 -83 l44 -47 -6
-63 c-8 -84 -34 -157 -56 -157 -17 0 -111 71 -163 123 -18 18 -38 27 -60 27
-18 1 -66 7 -106 14 -53 9 -77 10 -86 2 -6 -6 -20 -18 -30 -26 -18 -14 -18
-13 -11 19 9 40 6 39 -78 -31 -72 -59 -84 -62 -31 -5 87 92 141 164 152 203
14 49 16 146 3 192 -12 39 5 43 37 9z m547 -92 c-16 -56 -25 -65 -43 -42 -8 9
-2 26 21 63 38 61 44 55 22 -21z m-3010 -36 c-20 -31 -55 20 -55 79 0 23 4 20
30 -22 17 -26 28 -52 25 -57z m870 -112 c161 -159 149 -167 -29 -18 -11 10 4
-30 39 -99 31 -63 53 -110 47 -105 -47 49 -236 324 -277 404 l-17 35 43 -35
c24 -19 111 -101 194 -182z m1490 199 c11 -8 28 -30 39 -49 18 -35 18 -36 -4
-71 -23 -38 -33 -42 -75 -26 -24 9 -36 4 -107 -45 l-80 -55 40 47 c45 55 118
166 127 194 7 22 33 25 60 5z m1145 -18 c-20 -69 -86 -137 -217 -221 -54 -34
-74 -66 -89 -136 l-11 -56 -8 38 c-10 49 -1 100 22 131 10 13 56 50 101 81
106 73 148 110 178 157 29 46 35 48 24 6z m-4007 -26 c23 -32 70 -72 140 -120
128 -87 151 -116 151 -189 0 -29 -5 -58 -12 -65 -9 -9 -12 -3 -12 28 -1 71
-30 116 -106 163 -109 68 -177 140 -198 209 -11 33 -1 27 37 -26z m727 3 c-14
-8 -35 -14 -47 -15 -17 0 -30 -14 -53 -59 -16 -33 -45 -72 -65 -87 -35 -26
-35 -27 -35 -104 0 -50 7 -101 20 -141 10 -35 16 -67 12 -70 -4 -4 -19 -9 -34
-13 -26 -6 -26 -5 -37 62 -6 37 -16 101 -21 142 l-9 75 56 50 c34 30 65 68 79
100 22 47 26 51 76 61 73 16 87 16 58 -1z m2577 -5 c16 0 25 -11 38 -42 20
-52 35 -71 97 -121 39 -32 46 -43 43 -65 -2 -15 -12 -80 -21 -144 -9 -65 -18
-118 -20 -118 -2 0 -14 5 -27 11 l-23 11 18 53 c10 30 21 92 24 139 l7 86 -45
40 c-27 23 -54 60 -67 90 -17 38 -27 50 -44 50 -12 0 -29 5 -37 11 -12 8 -10
9 10 5 14 -3 35 -6 47 -6z m-2147 -479 c0 -32 -5 -72 -11 -89 -10 -30 -13 -31
-216 -81 -114 -27 -210 -48 -215 -45 -18 11 -6 52 23 80 25 23 85 97 120 147
12 17 146 45 222 46 l77 1 0 -59z m1856 40 c40 -10 77 -22 83 -25 6 -4 29 -34
51 -67 23 -32 54 -69 70 -81 23 -17 30 -30 30 -56 0 -30 -3 -34 -22 -29 -13 3
-92 23 -176 43 l-152 38 -10 37 c-15 55 -23 126 -17 143 8 21 55 20 143 -3z
m-2216 -19 c0 -5 -26 -40 -59 -78 -62 -73 -98 -134 -81 -134 11 0 14 -30 3
-30 -5 0 -18 -3 -30 -6 -58 -16 -5 98 88 188 71 69 79 75 79 60z m2481 -116
c33 -44 66 -122 56 -132 -2 -3 -16 0 -31 5 -28 11 -35 31 -11 31 8 0 15 4 15
8 0 12 -54 91 -97 142 l-38 45 35 -26 c19 -14 51 -47 71 -73z m534 64 l80 -1
-40 -15 c-25 -9 -67 -14 -115 -12 -68 3 -75 5 -78 25 -3 20 -1 21 35 12 21 -5
74 -9 118 -9z m-3517 -7 c-3 -15 -16 -19 -65 -21 -34 -2 -82 3 -105 10 l-43
13 90 6 c50 3 98 6 108 7 13 1 17 -4 15 -15z m3274 -161 c-4 -61 -6 -63 -43
-82 -37 -19 -58 -59 -59 -110 0 -8 -10 -26 -21 -40 -17 -20 -19 -21 -14 -5 4
11 12 46 16 78 11 74 23 96 60 109 16 5 29 16 29 24 0 15 31 97 35 92 1 -2 0
-31 -3 -66z m-3131 -52 c31 -13 49 -37 49 -66 0 -13 -4 -11 -20 8 -10 14 -33
31 -50 38 -20 8 -29 18 -26 27 4 8 7 20 7 26 1 7 3 5 6 -5 2 -9 18 -22 34 -28z
m998 -255 c69 -99 161 -229 206 -290 97 -132 110 -155 54 -95 -115 124 -270
338 -383 532 -58 100 -75 141 -29 73 14 -22 83 -121 152 -220z m1516 38 c50
-10 132 -17 183 -18 82 0 90 -1 65 -12 -40 -17 -144 -15 -238 5 -80 17 -111
34 -150 82 -13 17 -8 14 16 -7 29 -27 50 -36 124 -50z m-2225 37 c15 8 21 6
30 -9 9 -17 6 -20 -18 -23 l-27 -4 28 -12 c38 -16 119 -15 214 3 89 17 137 20
113 6 -24 -14 -181 -41 -239 -41 -28 0 -67 7 -86 15 -34 14 -59 50 -47 70 3 5
7 4 10 -3 2 -8 9 -9 22 -2z m2504 4 c25 -10 19 -34 -9 -34 -18 0 -25 5 -25 20
0 21 8 24 34 14z m-1134 -120 c313 -91 577 -144 725 -144 63 -1 76 -3 61 -11
-12 -8 -78 -10 -200 -6 -201 6 -309 24 -481 82 -105 35 -295 119 -295 130 0 4
8 4 18 0 9 -3 87 -27 172 -51z m-1890 -234 c0 -5 -11 -10 -24 -10 -38 0 -39
-15 -3 -62 97 -128 342 -177 514 -102 40 17 39 19 -19 29 -28 4 -38 11 -38 24
0 16 6 17 48 10 84 -13 83 -12 56 -80 -27 -66 -44 -163 -44 -256 l0 -63 -52 0
c-29 0 -106 5 -171 10 -128 11 -199 33 -312 98 -99 58 -93 38 -78 224 8 90 16
169 18 176 5 15 105 17 105 2z m3655 -2 c2 -7 5 -41 7 -75 3 -47 1 -63 -9 -63
-9 0 -13 16 -13 53 l-1 52 -19 -35 c-30 -57 -73 -91 -121 -97 l-44 -6 50 34
c49 34 95 89 95 115 0 9 -11 14 -30 14 -16 0 -30 5 -30 10 0 15 110 13 115 -2z
m-549 -135 c-3 -4 -23 -9 -43 -13 l-38 -7 39 -17 c21 -9 68 -23 105 -30 l66
-12 -47 -8 c-27 -4 -52 -5 -57 -2 -5 4 -11 2 -13 -3 -1 -5 -21 -11 -42 -13
l-40 -3 -22 57 -22 57 32 10 c51 16 81 17 84 3 2 -8 1 -16 -2 -19z m622 -219
c30 -20 52 -72 52 -123 0 -53 9 -77 22 -59 7 9 8 8 4 -5 -3 -10 -6 -24 -6 -32
0 -7 -17 -15 -40 -19 -36 -6 -44 -3 -65 21 -13 16 -25 36 -25 46 0 26 -17 55
-40 67 -30 16 -84 -10 -100 -49 -26 -63 1 -135 88 -239 24 -29 43 -55 41 -56
-2 -2 -39 -10 -82 -17 -79 -13 -79 -13 -99 11 -10 14 -31 50 -46 80 -24 48
-27 67 -27 150 0 83 3 101 25 138 13 24 40 53 59 65 76 47 185 56 239 21z
m-418 -38 c0 -2 -7 -17 -15 -32 -12 -23 -15 -72 -15 -236 0 -114 -3 -209 -7
-211 -5 -3 -32 -8 -60 -12 l-53 -7 0 209 c0 175 -3 212 -16 231 -9 13 -14 25
-13 26 3 3 118 26 172 35 4 0 7 -1 7 -3z m-307 -96 c-12 -37 -14 -80 -11 -238
3 -106 2 -194 -1 -196 -3 -2 -32 -7 -63 -11 l-58 -7 0 213 c0 183 -2 215 -16
231 -14 14 -14 18 -3 22 16 6 163 34 166 32 1 -1 -5 -22 -14 -46z m-248 -75
c4 -36 5 -68 3 -71 -3 -2 -16 0 -30 5 -16 6 -51 4 -108 -8 l-85 -16 -3 -80
c-2 -44 0 -108 3 -143 l7 -63 46 7 c39 5 82 20 125 42 4 2 7 -15 7 -37 0 -34
-4 -42 -22 -46 -47 -11 -243 -45 -260 -45 -17 0 -18 14 -18 198 0 156 -3 203
-15 226 -9 16 -13 31 -10 34 6 6 292 60 327 61 25 1 27 -2 33 -64z m-488 -41
c55 -42 63 -73 63 -261 0 -192 7 -175 -77 -188 l-43 -7 0 164 c0 114 -4 168
-12 176 -15 15 -92 16 -119 1 -19 -10 -20 -20 -18 -186 2 -197 7 -183 -73
-196 l-38 -6 0 203 c0 179 -2 206 -19 239 -23 45 -29 41 104 67 120 23 195 21
232 -6z m-500 -80 c56 -42 63 -72 63 -266 l0 -176 -30 -6 c-16 -3 -43 -9 -60
-12 l-30 -6 0 166 c0 154 -1 167 -21 187 -16 16 -27 19 -52 14 -88 -19 -102
-57 -93 -247 l7 -138 -23 -9 c-13 -5 -42 -12 -65 -16 l-43 -7 0 169 c1 181 8
217 54 278 50 66 121 97 209 92 37 -2 66 -10 84 -23z m-432 -81 c-23 -57 -27
-102 -23 -266 5 -199 9 -189 -69 -201 -35 -5 -43 -3 -43 9 0 21 -17 19 -23 -4
-3 -13 -18 -20 -52 -25 -26 -4 -49 -5 -51 -3 -3 3 13 83 35 178 56 244 56 245
37 273 l-15 24 72 12 c40 6 77 13 82 15 6 2 21 4 34 4 18 1 22 -3 16 -16z
m-370 -75 c-15 -31 -13 -43 33 -226 27 -106 45 -195 41 -198 -5 -3 -31 -8 -58
-11 -42 -5 -50 -3 -54 13 -4 16 -5 16 -6 -3 -1 -15 -9 -23 -31 -27 -16 -3 -43
-9 -60 -12 l-30 -6 0 202 c0 161 -3 207 -15 230 -9 17 -14 30 -13 31 6 3 184
37 195 38 9 1 9 -7 -2 -31z m-330 -60 c33 -26 55 -75 55 -123 0 -20 7 -51 15
-71 17 -40 20 -38 -76 -53 -85 -14 -83 -15 -65 11 23 32 20 94 -4 118 -47 47
-118 6 -127 -72 -7 -59 18 -112 88 -191 28 -32 49 -61 45 -64 -3 -3 -38 -12
-77 -20 -86 -16 -90 -14 -139 79 -25 46 -34 78 -38 129 -13 179 70 276 239
278 43 1 63 -4 84 -21z m3124 -51 c24 -49 29 -161 10 -218 -33 -98 -123 -153
-247 -151 -84 2 -120 48 -129 165 -3 43 -12 79 -21 90 -8 9 -13 17 -9 17 3 0
41 7 84 15 100 19 96 20 78 -15 -21 -41 -19 -92 6 -124 27 -35 63 -34 100 3
41 41 41 114 0 188 l-29 52 37 7 c20 3 41 7 46 9 36 12 54 3 74 -38z m-3614
-27 c-19 -36 -18 -39 16 -287 10 -79 19 -145 19 -147 0 -3 -25 -10 -56 -16
-42 -9 -58 -9 -64 -1 -3 7 -12 70 -18 142 -7 72 -16 138 -22 147 -8 15 -9 15
-10 -3 -2 -69 -30 -299 -38 -307 -5 -5 -32 -11 -62 -15 l-53 -6 6 34 c3 19 16
114 28 211 21 168 21 178 5 203 -10 15 -16 28 -14 30 5 5 272 53 276 49 2 -1
-4 -17 -13 -34z m3131 -44 c3 -19 4 -77 2 -129 -3 -84 -6 -99 -33 -143 -40
-64 -108 -102 -199 -111 -59 -5 -69 -3 -105 20 -59 39 -75 91 -68 218 3 56 9
105 14 109 4 5 28 10 53 12 l45 3 6 -109 c4 -91 8 -111 24 -122 22 -17 29 -17
77 -4 56 16 68 40 68 142 0 107 9 135 47 141 60 9 62 8 69 -27z m-744 -168 c0
-40 0 -97 -1 -125 -2 -37 1 -54 11 -58 26 -10 169 22 200 45 l30 22 -6 -28
c-3 -16 -8 -50 -12 -77 -3 -26 -9 -49 -13 -51 -6 -4 -341 -66 -355 -66 -3 0 4
19 14 43 17 35 20 66 20 194 0 169 -7 151 65 166 44 10 45 9 47 -65z m-208 16
c3 -9 6 -64 6 -122 0 -101 -2 -110 -30 -159 -45 -78 -88 -102 -233 -129 -166
-31 -162 -32 -140 9 14 26 18 63 21 190 4 176 -1 165 80 180 l32 7 0 -125 c0
-68 4 -126 9 -130 19 -11 96 9 118 31 20 20 23 33 23 107 0 120 6 145 39 150
54 8 69 7 75 -9z m-494 -189 c0 -130 -11 -169 -63 -223 -51 -53 -102 -75 -178
-76 -57 -1 -70 3 -101 26 -54 41 -71 95 -66 216 1 55 5 103 8 106 3 2 28 8 56
11 l51 7 7 -108 c4 -60 12 -115 18 -121 6 -7 28 -13 50 -13 30 0 46 7 69 29
27 27 29 35 29 103 0 40 3 90 6 110 7 39 15 44 82 47 l32 1 0 -115z m-519
-139 c4 -141 6 -167 22 -184 18 -20 18 -20 0 -26 -35 -10 -154 -28 -159 -24
-2 3 2 18 11 34 11 22 15 65 15 179 0 83 4 155 8 161 8 13 34 21 73 23 l27 1
3 -164z m-181 107 c0 -16 -11 -75 -25 -133 -38 -154 -46 -183 -51 -177 -10 9
-74 262 -74 289 0 24 5 27 53 36 90 17 97 15 97 -15z m-219 -88 c4 -38 7 -113
8 -166 1 -72 5 -100 16 -109 8 -7 13 -16 10 -20 -5 -9 -164 -35 -171 -28 -2 3
3 21 11 41 11 26 15 73 15 169 0 73 3 143 6 155 6 22 30 32 74 29 24 -1 25 -5
31 -71z m-235 -31 c21 -55 16 -183 -9 -231 -40 -76 -113 -116 -214 -117 -62
-1 -75 2 -96 22 -33 31 -45 62 -55 147 -5 39 -12 77 -16 86 -6 14 3 19 57 28
35 6 73 11 85 11 20 0 20 -1 5 -31 -17 -34 -13 -100 7 -124 7 -8 28 -15 47
-15 80 0 110 104 58 206 -14 27 -25 52 -25 55 0 11 114 26 127 16 7 -5 20 -28
29 -53z m-461 -194 c10 -74 24 -145 31 -157 8 -12 14 -26 14 -31 0 -10 -158
-37 -166 -29 -3 3 0 15 6 28 12 21 8 124 -4 137 -7 6 -145 -13 -154 -22 -3 -4
-8 -33 -10 -66 -3 -44 0 -66 11 -84 l16 -24 -67 -11 c-37 -6 -80 -14 -95 -17
-29 -6 -29 -6 -12 19 10 16 24 81 36 169 28 217 23 205 107 221 l32 7 0 -46
c0 -38 3 -45 18 -40 9 2 36 8 60 11 42 7 42 7 42 50 l0 43 48 9 c61 12 64 6
87 -167z"/>
<path d="M2087 3379 c-22 -249 -22 -233 7 -247 29 -13 31 -10 14 17 -9 15 -9
34 -1 78 18 94 29 116 56 107 20 -6 20 -4 -6 22 -16 16 -37 44 -46 63 l-18 34
-6 -74z"/>
<path d="M2370 3256 c0 -6 -7 -58 -15 -115 -8 -58 -12 -108 -8 -112 5 -4 59
-11 122 -15 125 -8 115 -13 97 52 -5 17 20 137 38 184 5 13 -12 15 -114 16
-80 1 -120 -3 -120 -10z"/>
</g>
</svg>
